<?xml version="1.0" encoding="UTF-8" ?>
<svg version="1.1" width="32" height="32" xmlns="http://www.w3.org/2000/svg" shape-rendering="crispEdges">
<rect x="9" y="0" width="1" height="1" fill="#73522D" />
<rect x="10" y="0" width="1" height="1" fill="#73522D" />
<rect x="11" y="0" width="1" height="1" fill="#73522D" />
<rect x="12" y="0" width="1" height="1" fill="#73522D" />
<rect x="13" y="0" width="1" height="1" fill="#73522D" />
<rect x="2" y="1" width="1" height="1" fill="#604221" />
<rect x="8" y="1" width="1" height="1" fill="#73522D" />
<rect x="9" y="1" width="1" height="1" fill="#73522D" />
<rect x="3" y="2" width="1" height="1" fill="#73522D" />
<rect x="6" y="2" width="1" height="1" fill="#73522D" />
<rect x="7" y="2" width="1" height="1" fill="#73522D" />
<rect x="3" y="3" width="1" height="1" fill="#73522D" />
<rect x="5" y="3" width="1" height="1" fill="#73522D" />
<rect x="6" y="3" width="1" height="1" fill="#73522D" />
<rect x="20" y="3" width="1" height="1" fill="#73522D" />
<rect x="28" y="3" width="1" height="1" fill="#73522D" />
<rect x="29" y="3" width="1" height="1" fill="#73522D" />
<rect x="3" y="4" width="1" height="1" fill="#73522D" />
<rect x="4" y="4" width="1" height="1" fill="#73522D" />
<rect x="5" y="4" width="1" height="1" fill="#73522D" />
<rect x="6" y="4" width="1" height="1" fill="#73522D" />
<rect x="7" y="4" width="1" height="1" fill="#73522D" />
<rect x="20" y="4" width="1" height="1" fill="#73522D" />
<rect x="21" y="4" width="1" height="1" fill="#73522D" />
<rect x="22" y="4" width="1" height="1" fill="#73522D" />
<rect x="28" y="4" width="1" height="1" fill="#73522D" />
<rect x="4" y="5" width="1" height="1" fill="#73522D" />
<rect x="8" y="5" width="1" height="1" fill="#73522D" />
<rect x="9" y="5" width="1" height="1" fill="#73522D" />
<rect x="22" y="5" width="1" height="1" fill="#604221" />
<rect x="23" y="5" width="1" height="1" fill="#604221" />
<rect x="24" y="5" width="1" height="1" fill="#73522D" />
<rect x="27" y="5" width="1" height="1" fill="#73522D" />
<rect x="3" y="6" width="1" height="1" fill="#73522D" />
<rect x="12" y="6" width="1" height="1" fill="#73522D" />
<rect x="13" y="6" width="1" height="1" fill="#73522D" />
<rect x="24" y="6" width="1" height="1" fill="#73522D" />
<rect x="25" y="6" width="1" height="1" fill="#73522D" />
<rect x="27" y="6" width="1" height="1" fill="#73522D" />
<rect x="2" y="7" width="1" height="1" fill="#604221" />
<rect x="3" y="7" width="1" height="1" fill="#604221" />
<rect x="9" y="7" width="1" height="1" fill="#73522D" />
<rect x="10" y="7" width="1" height="1" fill="#73522D" />
<rect x="11" y="7" width="1" height="1" fill="#73522D" />
<rect x="17" y="7" width="1" height="1" fill="#73522D" />
<rect x="21" y="7" width="1" height="1" fill="#73522D" />
<rect x="22" y="7" width="1" height="1" fill="#73522D" />
<rect x="25" y="7" width="1" height="1" fill="#604221" />
<rect x="26" y="7" width="1" height="1" fill="#604221" />
<rect x="27" y="7" width="1" height="1" fill="#73522D" />
<rect x="2" y="8" width="1" height="1" fill="#604221" />
<rect x="8" y="8" width="1" height="1" fill="#604221" />
<rect x="13" y="8" width="1" height="1" fill="#73522D" />
<rect x="14" y="8" width="1" height="1" fill="#73522D" />
<rect x="17" y="8" width="1" height="1" fill="#73522D" />
<rect x="18" y="8" width="1" height="1" fill="#604221" />
<rect x="19" y="8" width="1" height="1" fill="#604221" />
<rect x="23" y="8" width="1" height="1" fill="#73522D" />
<rect x="24" y="8" width="1" height="1" fill="#73522D" />
<rect x="25" y="8" width="1" height="1" fill="#73522D" />
<rect x="26" y="8" width="1" height="1" fill="#73522D" />
<rect x="27" y="8" width="1" height="1" fill="#73522D" />
<rect x="1" y="9" width="1" height="1" fill="#73522D" />
<rect x="2" y="9" width="1" height="1" fill="#73522D" />
<rect x="5" y="9" width="1" height="1" fill="#73522D" />
<rect x="8" y="9" width="1" height="1" fill="#604221" />
<rect x="14" y="9" width="1" height="1" fill="#73522D" />
<rect x="18" y="9" width="1" height="1" fill="#73522D" />
<rect x="20" y="9" width="1" height="1" fill="#73522D" />
<rect x="21" y="9" width="1" height="1" fill="#73522D" />
<rect x="27" y="9" width="1" height="1" fill="#73522D" />
<rect x="28" y="9" width="1" height="1" fill="#73522D" />
<rect x="1" y="10" width="1" height="1" fill="#73522D" />
<rect x="6" y="10" width="1" height="1" fill="#73522D" />
<rect x="8" y="10" width="1" height="1" fill="#73522D" />
<rect x="10" y="10" width="1" height="1" fill="#73522D" />
<rect x="14" y="10" width="1" height="1" fill="#604221" />
<rect x="17" y="10" width="1" height="1" fill="#73522D" />
<rect x="18" y="10" width="1" height="1" fill="#73522D" />
<rect x="21" y="10" width="1" height="1" fill="#73522D" />
<rect x="22" y="10" width="1" height="1" fill="#73522D" />
<rect x="28" y="10" width="1" height="1" fill="#73522D" />
<rect x="1" y="11" width="1" height="1" fill="#73522D" />
<rect x="6" y="11" width="1" height="1" fill="#73522D" />
<rect x="7" y="11" width="1" height="1" fill="#73522D" />
<rect x="8" y="11" width="1" height="1" fill="#73522D" />
<rect x="10" y="11" width="1" height="1" fill="#73522D" />
<rect x="11" y="11" width="1" height="1" fill="#73522D" />
<rect x="14" y="11" width="1" height="1" fill="#604221" />
<rect x="17" y="11" width="1" height="1" fill="#73522D" />
<rect x="22" y="11" width="1" height="1" fill="#604221" />
<rect x="23" y="11" width="1" height="1" fill="#73522D" />
<rect x="28" y="11" width="1" height="1" fill="#73522D" />
<rect x="29" y="11" width="1" height="1" fill="#73522D" />
<rect x="1" y="12" width="1" height="1" fill="#604221" />
<rect x="5" y="12" width="1" height="1" fill="#73522D" />
<rect x="7" y="12" width="1" height="1" fill="#73522D" />
<rect x="8" y="12" width="1" height="1" fill="#73522D" />
<rect x="11" y="12" width="1" height="1" fill="#73522D" />
<rect x="12" y="12" width="1" height="1" fill="#73522D" />
<rect x="14" y="12" width="1" height="1" fill="#73522D" />
<rect x="20" y="12" width="1" height="1" fill="#604221" />
<rect x="21" y="12" width="1" height="1" fill="#604221" />
<rect x="23" y="12" width="1" height="1" fill="#73522D" />
<rect x="29" y="12" width="1" height="1" fill="#73522D" />
<rect x="1" y="13" width="1" height="1" fill="#604221" />
<rect x="4" y="13" width="1" height="1" fill="#73522D" />
<rect x="5" y="13" width="1" height="1" fill="#73522D" />
<rect x="8" y="13" width="1" height="1" fill="#73522D" />
<rect x="12" y="13" width="1" height="1" fill="#73522D" />
<rect x="13" y="13" width="1" height="1" fill="#73522D" />
<rect x="14" y="13" width="1" height="1" fill="#73522D" />
<rect x="19" y="13" width="1" height="1" fill="#73522D" />
<rect x="20" y="13" width="1" height="1" fill="#73522D" />
<rect x="23" y="13" width="1" height="1" fill="#73522D" />
<rect x="24" y="13" width="1" height="1" fill="#73522D" />
<rect x="29" y="13" width="1" height="1" fill="#604221" />
<rect x="1" y="14" width="1" height="1" fill="#604221" />
<rect x="2" y="14" width="1" height="1" fill="#604221" />
<rect x="3" y="14" width="1" height="1" fill="#73522D" />
<rect x="4" y="14" width="1" height="1" fill="#73522D" />
<rect x="8" y="14" width="1" height="1" fill="#73522D" />
<rect x="14" y="14" width="1" height="1" fill="#73522D" />
<rect x="15" y="14" width="1" height="1" fill="#73522D" />
<rect x="19" y="14" width="1" height="1" fill="#73522D" />
<rect x="24" y="14" width="1" height="1" fill="#604221" />
<rect x="28" y="14" width="1" height="1" fill="#604221" />
<rect x="29" y="14" width="1" height="1" fill="#604221" />
<rect x="2" y="15" width="1" height="1" fill="#604221" />
<rect x="7" y="15" width="1" height="1" fill="#604221" />
<rect x="8" y="15" width="1" height="1" fill="#604221" />
<rect x="9" y="15" width="1" height="1" fill="#73522D" />
<rect x="12" y="15" width="1" height="1" fill="#73522D" />
<rect x="13" y="15" width="1" height="1" fill="#73522D" />
<rect x="15" y="15" width="1" height="1" fill="#604221" />
<rect x="18" y="15" width="1" height="1" fill="#73522D" />
<rect x="19" y="15" width="1" height="1" fill="#73522D" />
<rect x="24" y="15" width="1" height="1" fill="#604221" />
<rect x="25" y="15" width="1" height="1" fill="#604221" />
<rect x="27" y="15" width="1" height="1" fill="#73522D" />
<rect x="28" y="15" width="1" height="1" fill="#73522D" />
<rect x="29" y="15" width="1" height="1" fill="#73522D" />
<rect x="2" y="16" width="1" height="1" fill="#73522D" />
<rect x="7" y="16" width="1" height="1" fill="#604221" />
<rect x="9" y="16" width="1" height="1" fill="#73522D" />
<rect x="13" y="16" width="1" height="1" fill="#73522D" />
<rect x="14" y="16" width="1" height="1" fill="#73522D" />
<rect x="15" y="16" width="1" height="1" fill="#604221" />
<rect x="18" y="16" width="1" height="1" fill="#73522D" />
<rect x="25" y="16" width="1" height="1" fill="#73522D" />
<rect x="27" y="16" width="1" height="1" fill="#73522D" />
<rect x="29" y="16" width="1" height="1" fill="#604221" />
<rect x="3" y="17" width="1" height="1" fill="#73522D" />
<rect x="6" y="17" width="1" height="1" fill="#73522D" />
<rect x="7" y="17" width="1" height="1" fill="#73522D" />
<rect x="9" y="17" width="1" height="1" fill="#73522D" />
<rect x="15" y="17" width="1" height="1" fill="#73522D" />
<rect x="17" y="17" width="1" height="1" fill="#73522D" />
<rect x="25" y="17" width="1" height="1" fill="#73522D" />
<rect x="29" y="17" width="1" height="1" fill="#604221" />
<rect x="3" y="18" width="1" height="1" fill="#73522D" />
<rect x="6" y="18" width="1" height="1" fill="#73522D" />
<rect x="9" y="18" width="1" height="1" fill="#73522D" />
<rect x="10" y="18" width="1" height="1" fill="#73522D" />
<rect x="15" y="18" width="1" height="1" fill="#73522D" />
<rect x="17" y="18" width="1" height="1" fill="#604221" />
<rect x="20" y="18" width="1" height="1" fill="#73522D" />
<rect x="21" y="18" width="1" height="1" fill="#73522D" />
<rect x="24" y="18" width="1" height="1" fill="#73522D" />
<rect x="25" y="18" width="1" height="1" fill="#73522D" />
<rect x="28" y="18" width="1" height="1" fill="#73522D" />
<rect x="29" y="18" width="1" height="1" fill="#73522D" />
<rect x="4" y="19" width="1" height="1" fill="#73522D" />
<rect x="10" y="19" width="1" height="1" fill="#73522D" />
<rect x="15" y="19" width="1" height="1" fill="#73522D" />
<rect x="16" y="19" width="1" height="1" fill="#73522D" />
<rect x="17" y="19" width="1" height="1" fill="#604221" />
<rect x="21" y="19" width="1" height="1" fill="#73522D" />
<rect x="22" y="19" width="1" height="1" fill="#73522D" />
<rect x="24" y="19" width="1" height="1" fill="#73522D" />
<rect x="28" y="19" width="1" height="1" fill="#73522D" />
<rect x="4" y="20" width="1" height="1" fill="#73522D" />
<rect x="9" y="20" width="1" height="1" fill="#73522D" />
<rect x="10" y="20" width="1" height="1" fill="#604221" />
<rect x="11" y="20" width="1" height="1" fill="#604221" />
<rect x="16" y="20" width="1" height="1" fill="#73522D" />
<rect x="17" y="20" width="1" height="1" fill="#73522D" />
<rect x="22" y="20" width="1" height="1" fill="#73522D" />
<rect x="23" y="20" width="1" height="1" fill="#604221" />
<rect x="24" y="20" width="1" height="1" fill="#73522D" />
<rect x="28" y="20" width="1" height="1" fill="#73522D" />
<rect x="2" y="21" width="1" height="1" fill="#73522D" />
<rect x="4" y="21" width="1" height="1" fill="#73522D" />
<rect x="5" y="21" width="1" height="1" fill="#604221" />
<rect x="9" y="21" width="1" height="1" fill="#73522D" />
<rect x="11" y="21" width="1" height="1" fill="#73522D" />
<rect x="16" y="21" width="1" height="1" fill="#73522D" />
<rect x="22" y="21" width="1" height="1" fill="#604221" />
<rect x="23" y="21" width="1" height="1" fill="#604221" />
<rect x="28" y="21" width="1" height="1" fill="#73522D" />
<rect x="30" y="21" width="1" height="1" fill="#73522D" />
<rect x="2" y="22" width="1" height="1" fill="#73522D" />
<rect x="5" y="22" width="1" height="1" fill="#73522D" />
<rect x="9" y="22" width="1" height="1" fill="#73522D" />
<rect x="11" y="22" width="1" height="1" fill="#73522D" />
<rect x="12" y="22" width="1" height="1" fill="#73522D" />
<rect x="17" y="22" width="1" height="1" fill="#73522D" />
<rect x="22" y="22" width="1" height="1" fill="#604221" />
<rect x="27" y="22" width="1" height="1" fill="#73522D" />
<rect x="29" y="22" width="1" height="1" fill="#73522D" />
<rect x="30" y="22" width="1" height="1" fill="#73522D" />
<rect x="2" y="23" width="1" height="1" fill="#73522D" />
<rect x="3" y="23" width="1" height="1" fill="#73522D" />
<rect x="6" y="23" width="1" height="1" fill="#73522D" />
<rect x="8" y="23" width="1" height="1" fill="#73522D" />
<rect x="9" y="23" width="1" height="1" fill="#73522D" />
<rect x="12" y="23" width="1" height="1" fill="#73522D" />
<rect x="13" y="23" width="1" height="1" fill="#73522D" />
<rect x="17" y="23" width="1" height="1" fill="#73522D" />
<rect x="21" y="23" width="1" height="1" fill="#73522D" />
<rect x="22" y="23" width="1" height="1" fill="#73522D" />
<rect x="27" y="23" width="1" height="1" fill="#73522D" />
<rect x="28" y="23" width="1" height="1" fill="#604221" />
<rect x="29" y="23" width="1" height="1" fill="#604221" />
<rect x="4" y="24" width="1" height="1" fill="#73522D" />
<rect x="5" y="24" width="1" height="1" fill="#73522D" />
<rect x="6" y="24" width="1" height="1" fill="#73522D" />
<rect x="7" y="24" width="1" height="1" fill="#73522D" />
<rect x="8" y="24" width="1" height="1" fill="#73522D" />
<rect x="13" y="24" width="1" height="1" fill="#73522D" />
<rect x="14" y="24" width="1" height="1" fill="#604221" />
<rect x="17" y="24" width="1" height="1" fill="#73522D" />
<rect x="21" y="24" width="1" height="1" fill="#73522D" />
<rect x="26" y="24" width="1" height="1" fill="#73522D" />
<rect x="27" y="24" width="1" height="1" fill="#73522D" />
<rect x="28" y="24" width="1" height="1" fill="#604221" />
<rect x="8" y="25" width="1" height="1" fill="#73522D" />
<rect x="9" y="25" width="1" height="1" fill="#73522D" />
<rect x="14" y="25" width="1" height="1" fill="#604221" />
<rect x="15" y="25" width="1" height="1" fill="#604221" />
<rect x="17" y="25" width="1" height="1" fill="#604221" />
<rect x="20" y="25" width="1" height="1" fill="#604221" />
<rect x="26" y="25" width="1" height="1" fill="#73522D" />
<rect x="9" y="26" width="1" height="1" fill="#73522D" />
<rect x="10" y="26" width="1" height="1" fill="#73522D" />
<rect x="11" y="26" width="1" height="1" fill="#604221" />
<rect x="15" y="26" width="1" height="1" fill="#604221" />
<rect x="16" y="26" width="1" height="1" fill="#73522D" />
<rect x="17" y="26" width="1" height="1" fill="#604221" />
<rect x="18" y="26" width="1" height="1" fill="#604221" />
<rect x="19" y="26" width="1" height="1" fill="#73522D" />
<rect x="20" y="26" width="1" height="1" fill="#604221" />
<rect x="25" y="26" width="1" height="1" fill="#604221" />
<rect x="26" y="26" width="1" height="1" fill="#604221" />
<rect x="6" y="27" width="1" height="1" fill="#73522D" />
<rect x="7" y="27" width="1" height="1" fill="#73522D" />
<rect x="8" y="27" width="1" height="1" fill="#73522D" />
<rect x="9" y="27" width="1" height="1" fill="#73522D" />
<rect x="11" y="27" width="1" height="1" fill="#604221" />
<rect x="12" y="27" width="1" height="1" fill="#604221" />
<rect x="13" y="27" width="1" height="1" fill="#73522D" />
<rect x="16" y="27" width="1" height="1" fill="#73522D" />
<rect x="17" y="27" width="1" height="1" fill="#73522D" />
<rect x="18" y="27" width="1" height="1" fill="#73522D" />
<rect x="19" y="27" width="1" height="1" fill="#73522D" />
<rect x="24" y="27" width="1" height="1" fill="#604221" />
<rect x="25" y="27" width="1" height="1" fill="#604221" />
<rect x="13" y="28" width="1" height="1" fill="#73522D" />
<rect x="14" y="28" width="1" height="1" fill="#73522D" />
<rect x="17" y="28" width="1" height="1" fill="#73522D" />
<rect x="18" y="28" width="1" height="1" fill="#73522D" />
<rect x="22" y="28" width="1" height="1" fill="#73522D" />
<rect x="23" y="28" width="1" height="1" fill="#73522D" />
<rect x="24" y="28" width="1" height="1" fill="#73522D" />
<rect x="14" y="29" width="1" height="1" fill="#73522D" />
<rect x="15" y="29" width="1" height="1" fill="#604221" />
<rect x="16" y="29" width="1" height="1" fill="#604221" />
<rect x="17" y="29" width="1" height="1" fill="#604221" />
<rect x="18" y="29" width="1" height="1" fill="#604221" />
<rect x="19" y="29" width="1" height="1" fill="#604221" />
<rect x="20" y="29" width="1" height="1" fill="#604221" />
<rect x="21" y="29" width="1" height="1" fill="#73522D" />
</svg>